<?xml version="1.0" encoding="UTF-8" standalone="no"?>
<svg
   xmlns:dc="http://purl.org/dc/elements/1.1/"
   xmlns:cc="http://creativecommons.org/ns#"
   xmlns:rdf="http://www.w3.org/1999/02/22-rdf-syntax-ns#"
   xmlns:svg="http://www.w3.org/2000/svg"
   xmlns="http://www.w3.org/2000/svg"
   version="1.1"
   id="svg2"
   viewBox="0 0 744.09448819 1052.3622047"
   height="297mm"
   width="210mm">
  <defs
     id="defs4" />
  <metadata
     id="metadata7">
    <rdf:RDF>
      <cc:Work
         rdf:about="">
        <dc:format>image/svg+xml</dc:format>
        <dc:type
           rdf:resource="http://purl.org/dc/dcmitype/StillImage" />
        <dc:title></dc:title>
      </cc:Work>
    </rdf:RDF>
  </metadata>
  <g
     style="opacity:1"
     id="layer1">
    <g
       transform="matrix(9.1806443,0,0,9.1806443,-1429.1329,-1703.7795)"
       id="g4167">
      <path
         style="fill:#000000;fill-opacity:1;fill-rule:evenodd;stroke:#000000;stroke-width:0.40000001;stroke-linecap:butt;stroke-linejoin:miter;stroke-miterlimit:4;stroke-dasharray:none;stroke-opacity:1"
         d="m 196.72656,194.23828 -34.78711,10.92188 0,72.91992 34.78711,10.35351 34.84961,-10.35351 0,-72.91992 z m -0.008,9.39649 7.29687,2.39376 0.0918,17.74295 9.95508,4.66211 0,25.89258 -9.95508,5 0,17.5 -7.38867,2.41016 -7.63867,-2.41016 0,-17.66211 -9.4375,-5.19531 0,-25.53516 9.4375,-4.66406 0,-17.741 z m -13.86133,3.99609 0,13.92773 -8.57226,4.46485 0,31.07031 8.57226,3.83984 0,13.83985 -12.58984,-3.83985 0,-59.19726 z m 27.11914,0 12.58985,4.10547 0,59.19726 -12.58985,3.83985 0,-13.83985 8.57227,-3.83984 0,-31.07031 -8.57227,-4.46485 z"
         id="path4147" />
      <path
         style="fill:#000000;fill-opacity:1;fill-rule:evenodd;stroke:#000000;stroke-width:0.40000001;stroke-linecap:butt;stroke-linejoin:miter;stroke-miterlimit:4;stroke-dasharray:none;stroke-opacity:1"
         d="m 196.71875,223.6582 -12.90966,6.43946 0,22.90475 12.90966,6.0625 12.57227,-6.0625 0,-22.90475 z m 0,6.25 7.39453,4.04102 0,15.15234 -7.39453,3.59766 -7.31445,-3.59766 0,-15.15234 z"
         id="path4153" />
      <path
         style="fill:#000000;fill-opacity:1;fill-rule:evenodd;stroke:#000000;stroke-width:0.40000001;stroke-linecap:butt;stroke-linejoin:miter;stroke-miterlimit:4;stroke-dasharray:none;stroke-opacity:1"
         d="m 192.1165,236.4112 4.6015,-2.92916 4.55364,2.92916 0,10.29121 -4.55364,2.84106 -4.6015,-2.90419 z"
         id="path4159" />
    </g>
  </g>
</svg>
