<?xml version="1.0" encoding="UTF-8" standalone="no"?>
<!-- Created with Inkscape (http://www.inkscape.org/) -->

<svg
   xmlns:dc="http://purl.org/dc/elements/1.1/"
   xmlns:cc="http://creativecommons.org/ns#"
   xmlns:rdf="http://www.w3.org/1999/02/22-rdf-syntax-ns#"
   xmlns:svg="http://www.w3.org/2000/svg"
   xmlns="http://www.w3.org/2000/svg"
   xmlns:sodipodi="http://sodipodi.sourceforge.net/DTD/sodipodi-0.dtd"
   xmlns:inkscape="http://www.inkscape.org/namespaces/inkscape"
   width="210mm"
   height="297mm"
   viewBox="0 0 744.09448819 1052.3622047"
   id="svg2"
   version="1.1"
   inkscape:version="0.91 r13725"
   sodipodi:docname="steganographic.svg">
  <defs
     id="defs4" />
  <sodipodi:namedview
     id="base"
     pagecolor="#ffffff"
     bordercolor="#666666"
     borderopacity="1.0"
     inkscape:pageopacity="0.0"
     inkscape:pageshadow="2"
     inkscape:zoom="0.7"
     inkscape:cx="207.41865"
     inkscape:cy="542.07854"
     inkscape:document-units="px"
     inkscape:current-layer="layer1"
     showgrid="false"
     inkscape:window-width="1360"
     inkscape:window-height="706"
     inkscape:window-x="-8"
     inkscape:window-y="-8"
     inkscape:window-maximized="1" />
  <metadata
     id="metadata7">
    <rdf:RDF>
      <cc:Work
         rdf:about="">
        <dc:format>image/svg+xml</dc:format>
        <dc:type
           rdf:resource="http://purl.org/dc/dcmitype/StillImage" />
        <dc:title></dc:title>
      </cc:Work>
    </rdf:RDF>
  </metadata>
  <g
     inkscape:label="Layer 1"
     inkscape:groupmode="layer"
     id="layer1">
    <g
       id="g4161"
       transform="matrix(1.9307179,0,0,1.9307179,-530.35408,-549.96973)">
      <path
         id="path4155"
         d="M 467.39062,390.24023 A 167.14285,167.14285 0 0 0 300.24805,557.38281 167.14285,167.14285 0 0 0 467.39062,724.52734 167.14285,167.14285 0 0 0 634.53516,557.38281 167.14285,167.14285 0 0 0 467.39062,390.24023 Z m -8.81835,24.6211 16.42773,2.85742 4.64258,5 39.64258,0 9.28711,7.5 -4.64454,7.85742 -0.71289,7.85742 24.28516,15.35743 15.35742,40.71484 -1.07226,29.64258 2.5,25.71289 -3.92774,23.57226 -7.5,2.85743 -1.07226,15.71484 2.14257,20.35547 1.42969,6.42969 -27.85742,37.14257 -33.92773,35.35743 -17.5,2.85742 -32.14454,-7.85742 L 429.28516,680.93359 420,662.36133 l -33.92773,-62.14258 -12.14454,-9.28516 -6.78515,-27.85742 1.07226,-13.21484 7.85743,-3.92774 -1.42969,-13.21484 1.42969,-48.92773 9.28515,-30 20,-22.85743 26.42774,-13.21484 26.78711,-2.85742 z"
         style="opacity:1;fill:#5c245c;fill-opacity:1;stroke:none;stroke-width:8;stroke-miterlimit:4;stroke-dasharray:none;stroke-dashoffset:0;stroke-opacity:1"
         inkscape:connector-curvature="0" />
      <path
         style="fill:#000000"
         d="m 465.68177,704.24987 c -15.18476,-2.21225 -25.55232,-7.08272 -34.13628,-16.03654 -6.22106,-6.48912 -8.59788,-10.16761 -9.79657,-15.16175 -0.37104,-1.54586 -2.2606,-4.20316 -4.19902,-5.90512 -5.62373,-4.9377 -8.67087,-10.12397 -21.36629,-36.36577 -9.83745,-20.33428 -12.46115,-24.96599 -14.77802,-26.08808 -3.08784,-1.49549 -8.20799,-8.70394 -11.29082,-15.8959 -3.90974,-9.12104 -6.26312,-20.55067 -6.36949,-30.93449 -0.12388,-12.09434 1.26298,-16.32308 5.64045,-17.19858 l 2.95573,-0.59114 -0.47434,-7.60514 c -0.26089,-4.18283 -1.03202,-11.65514 -1.71362,-16.60514 -1.68645,-12.24748 -0.80877,-32.97647 1.75714,-41.5 7.35741,-24.4401 16.70587,-37.04303 38.08715,-51.34639 15.44835,-10.33443 29.84644,-14.3329 48.07092,-13.3497 13.39111,0.72244 17.23909,1.88518 22.6037,6.8301 l 4.32016,3.98219 16.32514,-1.18846 c 18.98446,-1.38206 23.25385,-0.69903 28.51474,4.56186 4.69812,4.69812 4.52368,8.53241 -0.62229,13.67839 l -3.9327,3.93269 2.6827,0.9899 c 14.366,5.301 22.22923,12.82508 29.64771,28.36895 8.41098,17.62346 11.31381,32.39257 9.41183,47.88583 -0.94371,7.68733 -0.91188,7.89283 1.58002,10.20225 2.96437,2.74729 3.10411,4.74932 1.11885,16.02973 -0.78185,4.44254 -1.95773,12.76754 -2.61306,18.5 -1.2292,10.75231 -2.78711,15.96622 -5.74844,19.23844 -6.59971,7.29261 -19.66481,6.51491 -23.76533,-1.41462 -4.91734,-9.50908 4.41949,-21.90116 16.50145,-21.90116 3.52972,0 4.05107,-0.28888 4.06067,-2.25 0.006,-1.2375 0.28681,-3.91826 0.6239,-5.95724 l 0.6129,-3.70723 -3.4203,0.55503 c -5.74972,0.93306 -8.10945,-4.69455 -3.03028,-7.22679 3.89049,-1.93962 5.08529,-4.32101 3.67042,-7.31561 -0.67517,-1.42899 -2.40919,-5.74816 -3.85338,-9.59816 -1.4442,-3.85 -3.96347,-9.32951 -5.5984,-12.17668 -2.53104,-4.40776 -3.97841,-5.66809 -9.74422,-8.48506 -11.81013,-5.76998 -28.59962,-24.28084 -33.3237,-36.74025 -1.73187,-4.56768 -1.78196,-4.60334 -7.59566,-5.4064 -3.21876,-0.44462 -17.77729,-0.59848 -32.35229,-0.34191 -29.26685,0.51518 -36.63582,1.57472 -53.3104,7.66514 -16.2533,5.93655 -24.67651,13.54966 -29.74236,26.88189 -2.59418,6.82734 -3.47261,18.04584 -2.00478,25.60327 1.435,7.38838 2.58684,31.25495 1.68235,34.85876 -0.83626,3.3319 -4.07008,3.52126 -6.68125,0.39124 l -1.87702,-2.25 -0.0333,2.34292 c -0.0721,5.07867 4.21137,22.74053 7.01461,28.92295 2.81372,6.20553 3.05461,6.45135 4.78622,4.88427 2.0811,-1.88337 5.26235,-2.15369 6.83525,-0.58079 0.59861,0.59861 0.85424,2.97769 0.58071,5.40446 -0.44796,3.9743 0.57324,6.48623 12.26959,30.18065 11.82551,23.95606 19.86722,38.81683 24.68839,45.62317 5.03748,7.11172 20.1687,10.75789 36.79722,8.86704 11.11105,-1.26346 18.5158,-3.69307 27.99474,-9.18551 6.56669,-3.80498 11,-5.60929 11,-4.47689 0,1.61217 -3.16158,6.33574 -6.16468,9.21035 -9.65562,9.24249 -36.37081,15.03362 -52.30725,11.33878 -2.18455,-0.50648 -4.1418,-0.751 -4.34943,-0.54337 -0.85802,0.85802 10.5427,5.77828 17.52901,7.56508 9.90545,2.53339 24.85139,3.57755 29.45604,2.05788 1.9325,-0.63778 5.04874,-2.28124 6.92498,-3.65213 6.95307,-5.08033 27.30994,-26.27562 34.53643,-35.95886 4.10459,-5.5 9.37961,-12.475 11.72225,-15.5 2.34265,-3.025 5.69852,-8.03094 7.45749,-11.12432 l 3.19813,-5.62432 -1.71773,-3.87568 c -1.26098,-2.84512 -1.72477,-6.66769 -1.74419,-14.37568 -0.028,-11.12774 1.20237,-15.38592 4.27642,-14.79993 1.422,0.27107 1.76566,2.09982 2.21942,11.81033 0.35873,7.6771 1.16741,13.18716 2.43708,16.60547 1.85175,4.98547 1.85329,5.23869 0.0602,9.93378 -2.10446,5.51045 -14.86314,24.96594 -23.40812,35.69464 -4.9929,6.26886 -33.91739,34.86611 -39.63812,39.18967 -2.26156,1.70922 -18.57617,1.9649 -28.94903,0.45369 z m 87.86494,-128.2006 c 2.23113,-2.23113 4.48119,-11.13534 3.15019,-12.46633 -0.94514,-0.94515 -9.57757,8.02802 -10.23271,10.63661 -1.08636,4.3256 3.42195,5.49029 7.08252,1.82972 z m 4.26308,-70.93705 c -0.84482,-9.77591 -3.92434,-20.40644 -9.05778,-31.26756 -6.38443,-13.5079 -12.15062,-19.06246 -23.96924,-23.08946 -3.0889,-1.0525 -4.63992,-2.15126 -4.63992,-3.28698 0,-0.9383 -0.46836,-2.17436 -1.04081,-2.74681 -1.56479,-1.56479 0.43999,-9.09074 3.20589,-12.03494 2.29107,-2.43876 2.29847,-2.51209 0.39379,-3.90484 -2.39223,-1.74927 -15.16796,-1.88856 -29.56484,-0.32234 -11.86746,1.29104 -14.54108,0.84376 -15.39944,-2.5762 -0.39644,-1.57956 -2.18175,-3.32745 -4.86059,-4.75871 -3.85147,-2.05778 -5.54404,-2.25848 -18.734,-2.22146 -13.38113,0.0376 -15.06462,0.25522 -21.81717,2.82077 -16.50732,6.27175 -31.60074,17.88524 -40.67947,31.30043 -3.30026,4.87663 -9.50336,18.80562 -9.50336,21.33967 0,0.64262 2.1375,-0.71763 4.75,-3.02279 6.03249,-5.32281 15.10568,-9.89223 27.52644,-13.8628 18.13031,-5.79576 24.97978,-6.55034 57.42697,-6.32654 l 29.2034,0.20142 2.5817,-2.39263 c 3.01398,-2.79326 6.25157,-2.42934 6.7053,0.75371 0.1875,1.31542 1.14557,2.26763 2.47164,2.45653 3.29965,0.47004 3.64568,2.99868 0.77448,5.65962 -2.4743,2.2931 -2.5002,2.45191 -0.98947,6.06758 4.49547,10.75917 17.95328,24.89005 30.00255,31.50308 7.14531,3.92157 10.69709,7.62214 13.63985,14.21125 0.67549,1.5125 1.44697,2.75 1.71439,2.75 0.26742,0 0.20428,-3.2625 -0.14031,-7.25 z M 438.08445,633.41399 c -4.5676,-1.38599 -6.9416,-3.08384 -6.9416,-4.96451 0,-2.80794 1.99785,-3.93013 11.09029,-6.22942 7.00046,-1.77026 10.28964,-2.02927 20.37876,-1.60473 13.37564,0.56283 29.53095,3.51624 29.53095,5.39865 0,2.12813 -10.26122,6.21513 -18.32236,7.29772 -8.92466,1.19856 -31.90646,1.26434 -35.73604,0.10229 z m -21.3849,-14.27428 c -3.65088,-5.21236 -0.31161,-16.74576 6.86132,-23.69803 5.53955,-5.36915 9.13251,-2.26404 4.1845,3.61633 -3.92258,4.66173 -6.41864,10.44294 -7.14734,16.55421 -0.74505,6.24831 -1.50873,6.93933 -3.89848,3.52749 z m 78.82071,-5.54375 c -0.61742,-0.40356 -2.71799,-3.88374 -4.66792,-7.73374 -1.94993,-3.85 -6.06136,-9.925 -9.13651,-13.5 -6.13913,-7.13702 -6.85784,-10.29289 -2.46029,-10.80317 2.12074,-0.24609 3.76665,0.95618 8.74131,6.38514 7.48702,8.17076 11.37883,15.86293 10.95086,21.64434 -0.30671,4.14327 -1.3512,5.36451 -3.42745,4.00743 z m -45.37741,-7.35374 c -1.925,-0.57365 -4.4,-1.84789 -5.5,-2.83165 -1.1,-0.98375 -3.4875,-1.77208 -5.30556,-1.75183 -2.07144,0.0231 -4.09647,-0.75411 -5.42403,-2.08166 l -2.11848,-2.11848 2.30041,-8.29819 c 1.26523,-4.56401 3.34103,-12.85928 4.61288,-18.43395 2.72509,-11.94428 4.7398,-17.16032 6.95684,-18.01108 3.52491,-1.35263 3.69495,1.16716 1.09886,16.2836 -1.40393,8.17478 -3.19893,17.00074 -3.98889,19.61324 -0.78996,2.6125 -1.09221,4.75 -0.67167,4.75 0.42055,0 2.46338,1.35 4.53964,3 3.01727,2.39782 4.74412,3 8.60303,3 4.03639,0 5.34106,-0.50152 7.95701,-3.05869 2.63443,-2.57524 3.62776,-2.95214 6.28448,-2.38453 3.21964,0.68787 5.65548,2.14177 5.65548,3.37562 0,0.37813 -2.93183,2.62907 -6.51519,5.0021 -7.08278,4.69048 -12.26967,5.79759 -18.48481,3.9455 z m -43.25,-52.9601 c -2.76885,-1.61271 -2.09185,-4.74087 1.5,-6.93086 2.32902,-1.42003 5.03465,-1.98262 9.54775,-1.9853 5.54459,-0.003 6.59407,0.31599 8.77549,2.66979 3.59565,3.87977 2.64687,4.87477 -4.302,4.51157 -3.86036,-0.20177 -7.37037,0.24731 -9.77016,1.25 -2.05993,0.8607 -3.80287,1.55122 -3.8732,1.53449 -0.0703,-0.0167 -0.91538,-0.48908 -1.87788,-1.04969 z m 90.75,-3.05891 c -1.65,-0.52674 -5.79113,-0.70061 -9.20252,-0.38637 -5.50584,0.50717 -6.32274,0.3467 -7.27291,-1.42872 -0.85164,-1.59129 -0.6717,-2.39877 0.88043,-3.9509 2.20822,-2.20822 9.71402,-3.66025 13.24624,-2.56254 4.32861,1.34521 7.97759,4.5616 7.65421,6.74679 -0.37231,2.51588 -1.41012,2.82529 -5.30545,1.58174 z m -105.4001,-7.67432 c -2.43412,-4.54819 4.22564,-10.19063 14.89119,-12.61645 12.9668,-2.94924 22.46134,-1.74592 28.57446,3.62148 4.91588,4.3162 6.02642,6.6449 4.0916,8.57972 -1.38412,1.38412 -2.19922,1.22229 -8.14252,-1.61666 -4.89069,-2.33615 -8.00717,-3.15476 -12.01031,-3.15476 -7.60347,0 -14.84613,1.74274 -19.02323,4.5774 -4.24963,2.88387 -7.05473,3.08779 -8.38119,0.60927 z m 117.83486,-4.31868 c -6.76873,-3.52004 -11.17609,-5.14061 -15.07498,-5.54301 -7.28152,-0.75152 -16.00143,1.71607 -18.26337,5.16823 -2.8072,4.28433 -7.59641,2.69628 -7.59641,-2.5189 0,-3.28965 3.09233,-6.24292 9.50887,-9.08126 6.97729,-3.08639 19.76688,-3.13063 27.49113,-0.0951 9.06198,3.56125 17.15437,11.75143 15.60374,15.7923 -0.7424,1.93466 -0.86863,1.89439 -11.66898,-3.72227 z"
         id="path4149"
         inkscape:connector-curvature="0" />
    </g>
  </g>
</svg>
